# xmcd CD database file
#
# Track frame offsets:
#	150
#	12795
#	25718
#	36504
#	48577
#	58728
#	69324
#	83681
#	96618
#	108342
#	118846
#	129751
#
# Disc length: 1910 seconds
#
# Revision: 0
# Processed by: cddbd v1.5.2PL0 Copyright (c) Steve Scherf et al.
# Submitted via: CDex 1.51
#
DISCID=9c07740c
DTITLE=Jimmy Reed - Masters of the Blues
DYEAR=2006
DGENRE=Blues
TTITLE0=Bright lights, big city
TTITLE1=Big boss man
TTITLE2=Baby what you want me to do
TTITLE3=Honest, I do
TTITLE4=I wanna be loved
TTITLE5=Take out some insurance
TTITLE6=Baby what's wrong
TTITLE7=I'll change my style
TTITLE8=Hush hush
TTITLE9=Ain't that lovin' you baby
TTITLE10=The moon is rising
TTITLE11=I'm the man down there
EXTD=YEAR: 2006
EXTT0=
EXTT1=
EXTT2=
EXTT3=
EXTT4=
EXTT5=
EXTT6=
EXTT7=
EXTT8=
EXTT9=
EXTT10=
EXTT11=
PLAYORDER=
